<?xml version="1.0" encoding="UTF-8" standalone="no"?>
<!DOCTYPE svg PUBLIC "-//W3C//DTD SVG 1.1//EN"
 "http://www.w3.org/Graphics/SVG/1.1/DTD/svg11.dtd">
<!-- Generated by graphviz version 2.40.1 (20161225.0304)
 -->
<!-- Title: controllers_diagram Pages: 1 -->
<svg width="582pt" height="519pt"
 viewBox="0.00 0.00 582.00 519.00" xmlns="http://www.w3.org/2000/svg" xmlns:xlink="http://www.w3.org/1999/xlink">
<g id="graph0" class="graph" transform="scale(1 1) rotate(0) translate(4 515)">
<title>controllers_diagram</title>
<polygon fill="transparent" stroke="transparent" points="-4,4 -4,-515 578,-515 578,4 -4,4"/>
<!-- _diagram_info -->
<g id="node1" class="node">
<title>_diagram_info</title>
<text text-anchor="start" x="368" y="-423.6" font-family="Times,serif" font-size="13.00" fill="#000000">Controllers diagram</text>
<text text-anchor="start" x="368" y="-409.6" font-family="Times,serif" font-size="13.00" fill="#000000">Date: Nov 26 2018 &#45; 22:43</text>
<text text-anchor="start" x="368" y="-395.6" font-family="Times,serif" font-size="13.00" fill="#000000">Migration version: 20181120020512</text>
<text text-anchor="start" x="368" y="-381.6" font-family="Times,serif" font-size="13.00" fill="#000000">Generated by RailRoady 1.5.3</text>
<text text-anchor="start" x="368" y="-367.6" font-family="Times,serif" font-size="13.00" fill="#000000">http://railroady.prestonlee.com</text>
</g>
<!-- AlertsController -->
<g id="node2" class="node">
<title>AlertsController</title>
<path fill="none" stroke="#000000" d="M12,-234.5C12,-234.5 93,-234.5 93,-234.5 99,-234.5 105,-240.5 105,-246.5 105,-246.5 105,-390.5 105,-390.5 105,-396.5 99,-402.5 93,-402.5 93,-402.5 12,-402.5 12,-402.5 6,-402.5 0,-396.5 0,-390.5 0,-390.5 0,-246.5 0,-246.5 0,-240.5 6,-234.5 12,-234.5"/>
<text text-anchor="middle" x="52.5" y="-387.3" font-family="Times,serif" font-size="14.00" fill="#000000">AlertsController</text>
<polyline fill="none" stroke="#000000" points="0,-379.5 105,-379.5 "/>
<text text-anchor="start" x="8" y="-364.3" font-family="Times,serif" font-size="14.00" fill="#000000">create</text>
<text text-anchor="start" x="8" y="-349.3" font-family="Times,serif" font-size="14.00" fill="#000000">destroy</text>
<text text-anchor="start" x="8" y="-334.3" font-family="Times,serif" font-size="14.00" fill="#000000">index</text>
<text text-anchor="start" x="8" y="-319.3" font-family="Times,serif" font-size="14.00" fill="#000000">show</text>
<text text-anchor="start" x="8" y="-304.3" font-family="Times,serif" font-size="14.00" fill="#000000">update</text>
<polyline fill="none" stroke="#000000" points="0,-296.5 105,-296.5 "/>
<polyline fill="none" stroke="#000000" points="0,-272.5 105,-272.5 "/>
<text text-anchor="start" x="8" y="-257.3" font-family="Times,serif" font-size="14.00" fill="#000000">alert_params</text>
<text text-anchor="start" x="8" y="-242.3" font-family="Times,serif" font-size="14.00" fill="#000000">set_alert</text>
</g>
<!-- MonitoringLogsController -->
<g id="node3" class="node">
<title>MonitoringLogsController</title>
<path fill="none" stroke="#000000" d="M156,-342.5C156,-342.5 293,-342.5 293,-342.5 299,-342.5 305,-348.5 305,-354.5 305,-354.5 305,-498.5 305,-498.5 305,-504.5 299,-510.5 293,-510.5 293,-510.5 156,-510.5 156,-510.5 150,-510.5 144,-504.5 144,-498.5 144,-498.5 144,-354.5 144,-354.5 144,-348.5 150,-342.5 156,-342.5"/>
<text text-anchor="middle" x="224.5" y="-495.3" font-family="Times,serif" font-size="14.00" fill="#000000">MonitoringLogsController</text>
<polyline fill="none" stroke="#000000" points="144,-487.5 305,-487.5 "/>
<text text-anchor="start" x="152" y="-472.3" font-family="Times,serif" font-size="14.00" fill="#000000">create</text>
<text text-anchor="start" x="152" y="-457.3" font-family="Times,serif" font-size="14.00" fill="#000000">destroy</text>
<text text-anchor="start" x="152" y="-442.3" font-family="Times,serif" font-size="14.00" fill="#000000">index</text>
<text text-anchor="start" x="152" y="-427.3" font-family="Times,serif" font-size="14.00" fill="#000000">show</text>
<text text-anchor="start" x="152" y="-412.3" font-family="Times,serif" font-size="14.00" fill="#000000">update</text>
<polyline fill="none" stroke="#000000" points="144,-404.5 305,-404.5 "/>
<polyline fill="none" stroke="#000000" points="144,-380.5 305,-380.5 "/>
<text text-anchor="start" x="152" y="-365.3" font-family="Times,serif" font-size="14.00" fill="#000000">monitoring_log_params</text>
<text text-anchor="start" x="152" y="-350.3" font-family="Times,serif" font-size="14.00" fill="#000000">set_monitoring_log</text>
</g>
<!-- ApplicationController -->
<g id="node4" class="node">
<title>ApplicationController</title>
<path fill="none" stroke="#000000" d="M246,-.5C246,-.5 365,-.5 365,-.5 371,-.5 377,-6.5 377,-12.5 377,-12.5 377,-81.5 377,-81.5 377,-87.5 371,-93.5 365,-93.5 365,-93.5 246,-93.5 246,-93.5 240,-93.5 234,-87.5 234,-81.5 234,-81.5 234,-12.5 234,-12.5 234,-6.5 240,-.5 246,-.5"/>
<text text-anchor="middle" x="305.5" y="-78.3" font-family="Times,serif" font-size="14.00" fill="#000000">ApplicationController</text>
<polyline fill="none" stroke="#000000" points="234,-70.5 377,-70.5 "/>
<text text-anchor="start" x="242" y="-55.3" font-family="Times,serif" font-size="14.00" fill="#000000">login</text>
<polyline fill="none" stroke="#000000" points="234,-47.5 377,-47.5 "/>
<polyline fill="none" stroke="#000000" points="234,-23.5 377,-23.5 "/>
<text text-anchor="start" x="242" y="-8.3" font-family="Times,serif" font-size="14.00" fill="#000000">require_authentication!</text>
</g>
<!-- UsersController -->
<g id="node5" class="node">
<title>UsersController</title>
<path fill="none" stroke="#000000" d="M12,-36.5C12,-36.5 91,-36.5 91,-36.5 97,-36.5 103,-42.5 103,-48.5 103,-48.5 103,-192.5 103,-192.5 103,-198.5 97,-204.5 91,-204.5 91,-204.5 12,-204.5 12,-204.5 6,-204.5 0,-198.5 0,-192.5 0,-192.5 0,-48.5 0,-48.5 0,-42.5 6,-36.5 12,-36.5"/>
<text text-anchor="middle" x="51.5" y="-189.3" font-family="Times,serif" font-size="14.00" fill="#000000">UsersController</text>
<polyline fill="none" stroke="#000000" points="0,-181.5 103,-181.5 "/>
<text text-anchor="start" x="8" y="-166.3" font-family="Times,serif" font-size="14.00" fill="#000000">create_user</text>
<text text-anchor="start" x="8" y="-151.3" font-family="Times,serif" font-size="14.00" fill="#000000">destroy</text>
<text text-anchor="start" x="8" y="-136.3" font-family="Times,serif" font-size="14.00" fill="#000000">index</text>
<text text-anchor="start" x="8" y="-121.3" font-family="Times,serif" font-size="14.00" fill="#000000">show</text>
<text text-anchor="start" x="8" y="-106.3" font-family="Times,serif" font-size="14.00" fill="#000000">update</text>
<polyline fill="none" stroke="#000000" points="0,-98.5 103,-98.5 "/>
<polyline fill="none" stroke="#000000" points="0,-74.5 103,-74.5 "/>
<text text-anchor="start" x="8" y="-59.3" font-family="Times,serif" font-size="14.00" fill="#000000">set_user</text>
<text text-anchor="start" x="8" y="-44.3" font-family="Times,serif" font-size="14.00" fill="#000000">user_params</text>
</g>
<!-- MonitoringPointsController -->
<g id="node6" class="node">
<title>MonitoringPointsController</title>
<path fill="none" stroke="#000000" d="M156,-126.5C156,-126.5 300,-126.5 300,-126.5 306,-126.5 312,-132.5 312,-138.5 312,-138.5 312,-297.5 312,-297.5 312,-303.5 306,-309.5 300,-309.5 300,-309.5 156,-309.5 156,-309.5 150,-309.5 144,-303.5 144,-297.5 144,-297.5 144,-138.5 144,-138.5 144,-132.5 150,-126.5 156,-126.5"/>
<text text-anchor="middle" x="228" y="-294.3" font-family="Times,serif" font-size="14.00" fill="#000000">MonitoringPointsController</text>
<polyline fill="none" stroke="#000000" points="144,-286.5 312,-286.5 "/>
<text text-anchor="start" x="152" y="-271.3" font-family="Times,serif" font-size="14.00" fill="#000000">create</text>
<text text-anchor="start" x="152" y="-256.3" font-family="Times,serif" font-size="14.00" fill="#000000">destroy</text>
<text text-anchor="start" x="152" y="-241.3" font-family="Times,serif" font-size="14.00" fill="#000000">index</text>
<text text-anchor="start" x="152" y="-226.3" font-family="Times,serif" font-size="14.00" fill="#000000">monitoring_logs_show</text>
<text text-anchor="start" x="152" y="-211.3" font-family="Times,serif" font-size="14.00" fill="#000000">show</text>
<text text-anchor="start" x="152" y="-196.3" font-family="Times,serif" font-size="14.00" fill="#000000">update</text>
<polyline fill="none" stroke="#000000" points="144,-188.5 312,-188.5 "/>
<polyline fill="none" stroke="#000000" points="144,-164.5 312,-164.5 "/>
<text text-anchor="start" x="152" y="-149.3" font-family="Times,serif" font-size="14.00" fill="#000000">monitoring_point_params</text>
<text text-anchor="start" x="152" y="-134.3" font-family="Times,serif" font-size="14.00" fill="#000000">set_monitoring_point</text>
</g>
<!-- LocalesController -->
<g id="node7" class="node">
<title>LocalesController</title>
<path fill="none" stroke="#000000" d="M354,-126.5C354,-126.5 482,-126.5 482,-126.5 488,-126.5 494,-132.5 494,-138.5 494,-138.5 494,-312.5 494,-312.5 494,-318.5 488,-324.5 482,-324.5 482,-324.5 354,-324.5 354,-324.5 348,-324.5 342,-318.5 342,-312.5 342,-312.5 342,-138.5 342,-138.5 342,-132.5 348,-126.5 354,-126.5"/>
<text text-anchor="middle" x="418" y="-309.3" font-family="Times,serif" font-size="14.00" fill="#000000">LocalesController</text>
<polyline fill="none" stroke="#000000" points="342,-301.5 494,-301.5 "/>
<text text-anchor="start" x="350" y="-286.3" font-family="Times,serif" font-size="14.00" fill="#000000">create</text>
<text text-anchor="start" x="350" y="-271.3" font-family="Times,serif" font-size="14.00" fill="#000000">destroy</text>
<text text-anchor="start" x="350" y="-256.3" font-family="Times,serif" font-size="14.00" fill="#000000">get_charts_data</text>
<text text-anchor="start" x="350" y="-241.3" font-family="Times,serif" font-size="14.00" fill="#000000">index</text>
<text text-anchor="start" x="350" y="-226.3" font-family="Times,serif" font-size="14.00" fill="#000000">show</text>
<text text-anchor="start" x="350" y="-211.3" font-family="Times,serif" font-size="14.00" fill="#000000">show_monitoring_points</text>
<text text-anchor="start" x="350" y="-196.3" font-family="Times,serif" font-size="14.00" fill="#000000">update</text>
<polyline fill="none" stroke="#000000" points="342,-188.5 494,-188.5 "/>
<polyline fill="none" stroke="#000000" points="342,-164.5 494,-164.5 "/>
<text text-anchor="start" x="350" y="-149.3" font-family="Times,serif" font-size="14.00" fill="#000000">locale_params</text>
<text text-anchor="start" x="350" y="-134.3" font-family="Times,serif" font-size="14.00" fill="#000000">set_locale</text>
</g>
</g>
</svg>
