<?xml version="1.0" encoding="UTF-8" standalone="no"?>
<!DOCTYPE svg PUBLIC "-//W3C//DTD SVG 1.1//EN"
 "http://www.w3.org/Graphics/SVG/1.1/DTD/svg11.dtd">
<!-- Generated by graphviz version 2.40.1 (20161225.0304)
 -->
<!-- Title: controllers_diagram Pages: 1 -->
<svg width="511pt" height="519pt"
 viewBox="0.00 0.00 511.00 519.00" xmlns="http://www.w3.org/2000/svg" xmlns:xlink="http://www.w3.org/1999/xlink">
<g id="graph0" class="graph" transform="scale(1 1) rotate(0) translate(4 515)">
<title>controllers_diagram</title>
<polygon fill="transparent" stroke="transparent" points="-4,4 -4,-515 507,-515 507,4 -4,4"/>
<!-- _diagram_info -->
<g id="node1" class="node">
<title>_diagram_info</title>
<text text-anchor="start" x="98" y="-441.6" font-family="Times,serif" font-size="13.00" fill="#000000">Controllers diagram</text>
<text text-anchor="start" x="98" y="-427.6" font-family="Times,serif" font-size="13.00" fill="#000000">Date: Nov 20 2018 &#45; 00:05</text>
<text text-anchor="start" x="98" y="-413.6" font-family="Times,serif" font-size="13.00" fill="#000000">Migration version: 20181120020512</text>
<text text-anchor="start" x="98" y="-399.6" font-family="Times,serif" font-size="13.00" fill="#000000">Generated by RailRoady 1.5.3</text>
<text text-anchor="start" x="98" y="-385.6" font-family="Times,serif" font-size="13.00" fill="#000000">http://railroady.prestonlee.com</text>
</g>
<!-- AlertsController -->
<g id="node2" class="node">
<title>AlertsController</title>
<path fill="none" stroke="#000000" d="M12,-180.5C12,-180.5 93,-180.5 93,-180.5 99,-180.5 105,-186.5 105,-192.5 105,-192.5 105,-336.5 105,-336.5 105,-342.5 99,-348.5 93,-348.5 93,-348.5 12,-348.5 12,-348.5 6,-348.5 0,-342.5 0,-336.5 0,-336.5 0,-192.5 0,-192.5 0,-186.5 6,-180.5 12,-180.5"/>
<text text-anchor="middle" x="52.5" y="-333.3" font-family="Times,serif" font-size="14.00" fill="#000000">AlertsController</text>
<polyline fill="none" stroke="#000000" points="0,-325.5 105,-325.5 "/>
<text text-anchor="start" x="8" y="-310.3" font-family="Times,serif" font-size="14.00" fill="#000000">create</text>
<text text-anchor="start" x="8" y="-295.3" font-family="Times,serif" font-size="14.00" fill="#000000">destroy</text>
<text text-anchor="start" x="8" y="-280.3" font-family="Times,serif" font-size="14.00" fill="#000000">index</text>
<text text-anchor="start" x="8" y="-265.3" font-family="Times,serif" font-size="14.00" fill="#000000">show</text>
<text text-anchor="start" x="8" y="-250.3" font-family="Times,serif" font-size="14.00" fill="#000000">update</text>
<polyline fill="none" stroke="#000000" points="0,-242.5 105,-242.5 "/>
<polyline fill="none" stroke="#000000" points="0,-218.5 105,-218.5 "/>
<text text-anchor="start" x="8" y="-203.3" font-family="Times,serif" font-size="14.00" fill="#000000">alert_params</text>
<text text-anchor="start" x="8" y="-188.3" font-family="Times,serif" font-size="14.00" fill="#000000">set_alert</text>
</g>
<!-- MonitoringLogsController -->
<g id="node3" class="node">
<title>MonitoringLogsController</title>
<path fill="none" stroke="#000000" d="M354,-342.5C354,-342.5 491,-342.5 491,-342.5 497,-342.5 503,-348.5 503,-354.5 503,-354.5 503,-498.5 503,-498.5 503,-504.5 497,-510.5 491,-510.5 491,-510.5 354,-510.5 354,-510.5 348,-510.5 342,-504.5 342,-498.5 342,-498.5 342,-354.5 342,-354.5 342,-348.5 348,-342.5 354,-342.5"/>
<text text-anchor="middle" x="422.5" y="-495.3" font-family="Times,serif" font-size="14.00" fill="#000000">MonitoringLogsController</text>
<polyline fill="none" stroke="#000000" points="342,-487.5 503,-487.5 "/>
<text text-anchor="start" x="350" y="-472.3" font-family="Times,serif" font-size="14.00" fill="#000000">create</text>
<text text-anchor="start" x="350" y="-457.3" font-family="Times,serif" font-size="14.00" fill="#000000">destroy</text>
<text text-anchor="start" x="350" y="-442.3" font-family="Times,serif" font-size="14.00" fill="#000000">index</text>
<text text-anchor="start" x="350" y="-427.3" font-family="Times,serif" font-size="14.00" fill="#000000">show</text>
<text text-anchor="start" x="350" y="-412.3" font-family="Times,serif" font-size="14.00" fill="#000000">update</text>
<polyline fill="none" stroke="#000000" points="342,-404.5 503,-404.5 "/>
<polyline fill="none" stroke="#000000" points="342,-380.5 503,-380.5 "/>
<text text-anchor="start" x="350" y="-365.3" font-family="Times,serif" font-size="14.00" fill="#000000">monitoring_log_params</text>
<text text-anchor="start" x="350" y="-350.3" font-family="Times,serif" font-size="14.00" fill="#000000">set_locale</text>
</g>
<!-- ApplicationController -->
<g id="node4" class="node">
<title>ApplicationController</title>
<path fill="none" stroke="#000000" d="M246,-.5C246,-.5 358,-.5 358,-.5 364,-.5 370,-6.5 370,-12.5 370,-12.5 370,-83.5 370,-83.5 370,-89.5 364,-95.5 358,-95.5 358,-95.5 246,-95.5 246,-95.5 240,-95.5 234,-89.5 234,-83.5 234,-83.5 234,-12.5 234,-12.5 234,-6.5 240,-.5 246,-.5"/>
<text text-anchor="middle" x="302" y="-80.3" font-family="Times,serif" font-size="14.00" fill="#000000">ApplicationController</text>
<polyline fill="none" stroke="#000000" points="234,-72.5 370,-72.5 "/>
<polyline fill="none" stroke="#000000" points="234,-48.5 370,-48.5 "/>
<polyline fill="none" stroke="#000000" points="234,-24.5 370,-24.5 "/>
</g>
<!-- MonitoringPointsController -->
<g id="node5" class="node">
<title>MonitoringPointsController</title>
<path fill="none" stroke="#000000" d="M156,-126.5C156,-126.5 300,-126.5 300,-126.5 306,-126.5 312,-132.5 312,-138.5 312,-138.5 312,-297.5 312,-297.5 312,-303.5 306,-309.5 300,-309.5 300,-309.5 156,-309.5 156,-309.5 150,-309.5 144,-303.5 144,-297.5 144,-297.5 144,-138.5 144,-138.5 144,-132.5 150,-126.5 156,-126.5"/>
<text text-anchor="middle" x="228" y="-294.3" font-family="Times,serif" font-size="14.00" fill="#000000">MonitoringPointsController</text>
<polyline fill="none" stroke="#000000" points="144,-286.5 312,-286.5 "/>
<text text-anchor="start" x="152" y="-271.3" font-family="Times,serif" font-size="14.00" fill="#000000">create</text>
<text text-anchor="start" x="152" y="-256.3" font-family="Times,serif" font-size="14.00" fill="#000000">destroy</text>
<text text-anchor="start" x="152" y="-241.3" font-family="Times,serif" font-size="14.00" fill="#000000">index</text>
<text text-anchor="start" x="152" y="-226.3" font-family="Times,serif" font-size="14.00" fill="#000000">monitoring_logs_show</text>
<text text-anchor="start" x="152" y="-211.3" font-family="Times,serif" font-size="14.00" fill="#000000">show</text>
<text text-anchor="start" x="152" y="-196.3" font-family="Times,serif" font-size="14.00" fill="#000000">update</text>
<polyline fill="none" stroke="#000000" points="144,-188.5 312,-188.5 "/>
<polyline fill="none" stroke="#000000" points="144,-164.5 312,-164.5 "/>
<text text-anchor="start" x="152" y="-149.3" font-family="Times,serif" font-size="14.00" fill="#000000">monitoring_point_params</text>
<text text-anchor="start" x="152" y="-134.3" font-family="Times,serif" font-size="14.00" fill="#000000">set_locale</text>
</g>
<!-- LocalesController -->
<g id="node6" class="node">
<title>LocalesController</title>
<path fill="none" stroke="#000000" d="M354,-126.5C354,-126.5 482,-126.5 482,-126.5 488,-126.5 494,-132.5 494,-138.5 494,-138.5 494,-297.5 494,-297.5 494,-303.5 488,-309.5 482,-309.5 482,-309.5 354,-309.5 354,-309.5 348,-309.5 342,-303.5 342,-297.5 342,-297.5 342,-138.5 342,-138.5 342,-132.5 348,-126.5 354,-126.5"/>
<text text-anchor="middle" x="418" y="-294.3" font-family="Times,serif" font-size="14.00" fill="#000000">LocalesController</text>
<polyline fill="none" stroke="#000000" points="342,-286.5 494,-286.5 "/>
<text text-anchor="start" x="350" y="-271.3" font-family="Times,serif" font-size="14.00" fill="#000000">create</text>
<text text-anchor="start" x="350" y="-256.3" font-family="Times,serif" font-size="14.00" fill="#000000">destroy</text>
<text text-anchor="start" x="350" y="-241.3" font-family="Times,serif" font-size="14.00" fill="#000000">index</text>
<text text-anchor="start" x="350" y="-226.3" font-family="Times,serif" font-size="14.00" fill="#000000">show</text>
<text text-anchor="start" x="350" y="-211.3" font-family="Times,serif" font-size="14.00" fill="#000000">show_monitoring_points</text>
<text text-anchor="start" x="350" y="-196.3" font-family="Times,serif" font-size="14.00" fill="#000000">update</text>
<polyline fill="none" stroke="#000000" points="342,-188.5 494,-188.5 "/>
<polyline fill="none" stroke="#000000" points="342,-164.5 494,-164.5 "/>
<text text-anchor="start" x="350" y="-149.3" font-family="Times,serif" font-size="14.00" fill="#000000">locale_params</text>
<text text-anchor="start" x="350" y="-134.3" font-family="Times,serif" font-size="14.00" fill="#000000">set_locale</text>
</g>
</g>
</svg>
