<?xml version="1.0" encoding="UTF-8" standalone="no"?>
<!DOCTYPE svg PUBLIC "-//W3C//DTD SVG 1.1//EN"
 "http://www.w3.org/Graphics/SVG/1.1/DTD/svg11.dtd">
<!-- Generated by graphviz version 2.40.1 (20161225.0304)
 -->
<!-- Title: models_diagram Pages: 1 -->
<svg width="1512pt" height="506pt"
 viewBox="0.00 0.00 1512.00 506.00" xmlns="http://www.w3.org/2000/svg" xmlns:xlink="http://www.w3.org/1999/xlink">
<g id="graph0" class="graph" transform="scale(1 1) rotate(0) translate(4 502)">
<title>models_diagram</title>
<polygon fill="transparent" stroke="transparent" points="-4,4 -4,-502 1508,-502 1508,4 -4,4"/>
<!-- _diagram_info -->
<g id="node1" class="node">
<title>_diagram_info</title>
<text text-anchor="start" x="8" y="-431.6" font-family="Times,serif" font-size="13.00" fill="#000000">Models diagram</text>
<text text-anchor="start" x="8" y="-417.6" font-family="Times,serif" font-size="13.00" fill="#000000">Date: Nov 20 2018 &#45; 00:05</text>
<text text-anchor="start" x="8" y="-403.6" font-family="Times,serif" font-size="13.00" fill="#000000">Migration version: 20181120020512</text>
<text text-anchor="start" x="8" y="-389.6" font-family="Times,serif" font-size="13.00" fill="#000000">Generated by RailRoady 1.5.3</text>
<text text-anchor="start" x="8" y="-375.6" font-family="Times,serif" font-size="13.00" fill="#000000">http://railroady.prestonlee.com</text>
</g>
<!-- MonitoringLog -->
<g id="node2" class="node">
<title>MonitoringLog</title>
<path fill="none" stroke="#000000" d="M244,-.5C244,-.5 464,-.5 464,-.5 470,-.5 476,-6.5 476,-12.5 476,-12.5 476,-109.5 476,-109.5 476,-115.5 470,-121.5 464,-121.5 464,-121.5 244,-121.5 244,-121.5 238,-121.5 232,-115.5 232,-109.5 232,-109.5 232,-12.5 232,-12.5 232,-6.5 238,-.5 244,-.5"/>
<text text-anchor="middle" x="354" y="-106.3" font-family="Times,serif" font-size="14.00" fill="#000000">MonitoringLog</text>
<polyline fill="none" stroke="#000000" points="232,-98.5 476,-98.5 "/>
<text text-anchor="start" x="240" y="-83.3" font-family="Times,serif" font-size="14.00" fill="#000000">id :bigint</text>
<text text-anchor="start" x="240" y="-68.3" font-family="Times,serif" font-size="14.00" fill="#000000">monitoring_point_id :integer</text>
<text text-anchor="start" x="240" y="-53.3" font-family="Times,serif" font-size="14.00" fill="#000000">point_value :double precision</text>
<text text-anchor="start" x="240" y="-38.3" font-family="Times,serif" font-size="14.00" fill="#000000">created_at :timestamp without time zone</text>
<text text-anchor="start" x="240" y="-23.3" font-family="Times,serif" font-size="14.00" fill="#000000">updated_at :timestamp without time zone</text>
<text text-anchor="start" x="240" y="-8.3" font-family="Times,serif" font-size="14.00" fill="#000000">current_value :double precision</text>
</g>
<!-- Locale -->
<g id="node3" class="node">
<title>Locale</title>
<path fill="none" stroke="#000000" d="M244,-331.5C244,-331.5 464,-331.5 464,-331.5 470,-331.5 476,-337.5 476,-343.5 476,-343.5 476,-470.5 476,-470.5 476,-476.5 470,-482.5 464,-482.5 464,-482.5 244,-482.5 244,-482.5 238,-482.5 232,-476.5 232,-470.5 232,-470.5 232,-343.5 232,-343.5 232,-337.5 238,-331.5 244,-331.5"/>
<text text-anchor="middle" x="354" y="-467.3" font-family="Times,serif" font-size="14.00" fill="#000000">Locale</text>
<polyline fill="none" stroke="#000000" points="232,-459.5 476,-459.5 "/>
<text text-anchor="start" x="240" y="-444.3" font-family="Times,serif" font-size="14.00" fill="#000000">id :bigint</text>
<text text-anchor="start" x="240" y="-429.3" font-family="Times,serif" font-size="14.00" fill="#000000">title :character varying</text>
<text text-anchor="start" x="240" y="-414.3" font-family="Times,serif" font-size="14.00" fill="#000000">address :text</text>
<text text-anchor="start" x="240" y="-399.3" font-family="Times,serif" font-size="14.00" fill="#000000">type :character varying</text>
<text text-anchor="start" x="240" y="-384.3" font-family="Times,serif" font-size="14.00" fill="#000000">description :text</text>
<text text-anchor="start" x="240" y="-369.3" font-family="Times,serif" font-size="14.00" fill="#000000">created_at :timestamp without time zone</text>
<text text-anchor="start" x="240" y="-354.3" font-family="Times,serif" font-size="14.00" fill="#000000">updated_at :timestamp without time zone</text>
<text text-anchor="start" x="240" y="-339.3" font-family="Times,serif" font-size="14.00" fill="#000000">user_id :integer</text>
</g>
<!-- MonitoringPoint -->
<g id="node6" class="node">
<title>MonitoringPoint</title>
<path fill="none" stroke="#000000" d="M244,-158.5C244,-158.5 464,-158.5 464,-158.5 470,-158.5 476,-164.5 476,-170.5 476,-170.5 476,-267.5 476,-267.5 476,-273.5 470,-279.5 464,-279.5 464,-279.5 244,-279.5 244,-279.5 238,-279.5 232,-273.5 232,-267.5 232,-267.5 232,-170.5 232,-170.5 232,-164.5 238,-158.5 244,-158.5"/>
<text text-anchor="middle" x="354" y="-264.3" font-family="Times,serif" font-size="14.00" fill="#000000">MonitoringPoint</text>
<polyline fill="none" stroke="#000000" points="232,-256.5 476,-256.5 "/>
<text text-anchor="start" x="240" y="-241.3" font-family="Times,serif" font-size="14.00" fill="#000000">id :bigint</text>
<text text-anchor="start" x="240" y="-226.3" font-family="Times,serif" font-size="14.00" fill="#000000">title :character varying</text>
<text text-anchor="start" x="240" y="-211.3" font-family="Times,serif" font-size="14.00" fill="#000000">description :text</text>
<text text-anchor="start" x="240" y="-196.3" font-family="Times,serif" font-size="14.00" fill="#000000">locale_id :integer</text>
<text text-anchor="start" x="240" y="-181.3" font-family="Times,serif" font-size="14.00" fill="#000000">created_at :timestamp without time zone</text>
<text text-anchor="start" x="240" y="-166.3" font-family="Times,serif" font-size="14.00" fill="#000000">updated_at :timestamp without time zone</text>
</g>
<!-- Locale&#45;&gt;MonitoringPoint -->
<g id="edge1" class="edge">
<title>Locale&#45;&gt;MonitoringPoint</title>
<path fill="none" stroke="#8db7cf" d="M354,-323.258C354,-312.166 354,-300.8812 354,-290.0314"/>
<ellipse fill="none" stroke="#8db7cf" cx="354" cy="-327.3459" rx="4" ry="4"/>
<polygon fill="#8db7cf" stroke="#8db7cf" points="354.0001,-289.7826 358.5,-279.7826 354,-284.7826 354,-279.7826 354,-279.7826 354,-279.7826 354,-284.7826 349.5,-279.7827 354.0001,-289.7826 354.0001,-289.7826"/>
</g>
<!-- AlertMessage -->
<g id="node4" class="node">
<title>AlertMessage</title>
<path fill="none" stroke="#000000" d="M506,-361.5C506,-361.5 726,-361.5 726,-361.5 732,-361.5 738,-367.5 738,-373.5 738,-373.5 738,-440.5 738,-440.5 738,-446.5 732,-452.5 726,-452.5 726,-452.5 506,-452.5 506,-452.5 500,-452.5 494,-446.5 494,-440.5 494,-440.5 494,-373.5 494,-373.5 494,-367.5 500,-361.5 506,-361.5"/>
<text text-anchor="middle" x="616" y="-437.3" font-family="Times,serif" font-size="14.00" fill="#000000">AlertMessage</text>
<polyline fill="none" stroke="#000000" points="494,-429.5 738,-429.5 "/>
<text text-anchor="start" x="502" y="-414.3" font-family="Times,serif" font-size="14.00" fill="#000000">id :bigint</text>
<text text-anchor="start" x="502" y="-399.3" font-family="Times,serif" font-size="14.00" fill="#000000">alert_id :integer</text>
<text text-anchor="start" x="502" y="-384.3" font-family="Times,serif" font-size="14.00" fill="#000000">created_at :timestamp without time zone</text>
<text text-anchor="start" x="502" y="-369.3" font-family="Times,serif" font-size="14.00" fill="#000000">updated_at :timestamp without time zone</text>
</g>
<!-- ApplicationRecord -->
<g id="node5" class="node">
<title>ApplicationRecord</title>
<ellipse fill="none" stroke="#000000" cx="833" cy="-407" rx="77.1866" ry="18"/>
<text text-anchor="middle" x="833" y="-403.3" font-family="Times,serif" font-size="14.00" fill="#000000">ApplicationRecord</text>
</g>
<!-- MonitoringPoint&#45;&gt;MonitoringLog -->
<g id="edge2" class="edge">
<title>MonitoringPoint&#45;&gt;MonitoringLog</title>
<path fill="none" stroke="#4b0cea" d="M354,-150.1239C354,-144.0692 354,-137.9339 354,-131.8633"/>
<ellipse fill="none" stroke="#4b0cea" cx="354" cy="-154.3649" rx="4" ry="4"/>
<polygon fill="#4b0cea" stroke="#4b0cea" points="354.0001,-131.7339 358.5,-121.7338 354,-126.7339 354,-121.7339 354,-121.7339 354,-121.7339 354,-126.7339 349.5,-121.7339 354.0001,-131.7339 354.0001,-131.7339"/>
</g>
<!-- User -->
<g id="node7" class="node">
<title>User</title>
<path fill="none" stroke="#000000" d="M940.5,-316.5C940.5,-316.5 1229.5,-316.5 1229.5,-316.5 1235.5,-316.5 1241.5,-322.5 1241.5,-328.5 1241.5,-328.5 1241.5,-485.5 1241.5,-485.5 1241.5,-491.5 1235.5,-497.5 1229.5,-497.5 1229.5,-497.5 940.5,-497.5 940.5,-497.5 934.5,-497.5 928.5,-491.5 928.5,-485.5 928.5,-485.5 928.5,-328.5 928.5,-328.5 928.5,-322.5 934.5,-316.5 940.5,-316.5"/>
<text text-anchor="middle" x="1085" y="-482.3" font-family="Times,serif" font-size="14.00" fill="#000000">User</text>
<polyline fill="none" stroke="#000000" points="928.5,-474.5 1241.5,-474.5 "/>
<text text-anchor="start" x="936.5" y="-459.3" font-family="Times,serif" font-size="14.00" fill="#000000">id :bigint</text>
<text text-anchor="start" x="936.5" y="-444.3" font-family="Times,serif" font-size="14.00" fill="#000000">email :character varying</text>
<text text-anchor="start" x="936.5" y="-429.3" font-family="Times,serif" font-size="14.00" fill="#000000">encrypted_password :character varying</text>
<text text-anchor="start" x="936.5" y="-414.3" font-family="Times,serif" font-size="14.00" fill="#000000">reset_password_token :character varying</text>
<text text-anchor="start" x="936.5" y="-399.3" font-family="Times,serif" font-size="14.00" fill="#000000">reset_password_sent_at :timestamp without time zone</text>
<text text-anchor="start" x="936.5" y="-384.3" font-family="Times,serif" font-size="14.00" fill="#000000">remember_created_at :timestamp without time zone</text>
<text text-anchor="start" x="936.5" y="-369.3" font-family="Times,serif" font-size="14.00" fill="#000000">name :character varying</text>
<text text-anchor="start" x="936.5" y="-354.3" font-family="Times,serif" font-size="14.00" fill="#000000">created_at :timestamp without time zone</text>
<text text-anchor="start" x="936.5" y="-339.3" font-family="Times,serif" font-size="14.00" fill="#000000">updated_at :timestamp without time zone</text>
<text text-anchor="start" x="936.5" y="-324.3" font-family="Times,serif" font-size="14.00" fill="#000000">authentication_token :character varying(30)</text>
</g>
<!-- Alert -->
<g id="node8" class="node">
<title>Alert</title>
<path fill="none" stroke="#000000" d="M1272,-331.5C1272,-331.5 1492,-331.5 1492,-331.5 1498,-331.5 1504,-337.5 1504,-343.5 1504,-343.5 1504,-470.5 1504,-470.5 1504,-476.5 1498,-482.5 1492,-482.5 1492,-482.5 1272,-482.5 1272,-482.5 1266,-482.5 1260,-476.5 1260,-470.5 1260,-470.5 1260,-343.5 1260,-343.5 1260,-337.5 1266,-331.5 1272,-331.5"/>
<text text-anchor="middle" x="1382" y="-467.3" font-family="Times,serif" font-size="14.00" fill="#000000">Alert</text>
<polyline fill="none" stroke="#000000" points="1260,-459.5 1504,-459.5 "/>
<text text-anchor="start" x="1268" y="-444.3" font-family="Times,serif" font-size="14.00" fill="#000000">id :bigint</text>
<text text-anchor="start" x="1268" y="-429.3" font-family="Times,serif" font-size="14.00" fill="#000000">type :character varying</text>
<text text-anchor="start" x="1268" y="-414.3" font-family="Times,serif" font-size="14.00" fill="#000000">title :character varying</text>
<text text-anchor="start" x="1268" y="-399.3" font-family="Times,serif" font-size="14.00" fill="#000000">monitoring_point_id :integer</text>
<text text-anchor="start" x="1268" y="-384.3" font-family="Times,serif" font-size="14.00" fill="#000000">max_value :double precision</text>
<text text-anchor="start" x="1268" y="-369.3" font-family="Times,serif" font-size="14.00" fill="#000000">created_at :timestamp without time zone</text>
<text text-anchor="start" x="1268" y="-354.3" font-family="Times,serif" font-size="14.00" fill="#000000">updated_at :timestamp without time zone</text>
<text text-anchor="start" x="1268" y="-339.3" font-family="Times,serif" font-size="14.00" fill="#000000">alert_type :character varying</text>
</g>
</g>
</svg>
