<?xml version="1.0" encoding="UTF-8" standalone="no"?>
<!DOCTYPE svg PUBLIC "-//W3C//DTD SVG 1.1//EN"
 "http://www.w3.org/Graphics/SVG/1.1/DTD/svg11.dtd">
<!-- Generated by graphviz version 2.40.1 (20161225.0304)
 -->
<!-- Title: models_diagram Pages: 1 -->
<svg width="467pt" height="374pt"
 viewBox="0.00 0.00 467.34 374.00" xmlns="http://www.w3.org/2000/svg" xmlns:xlink="http://www.w3.org/1999/xlink">
<g id="graph0" class="graph" transform="scale(1 1) rotate(0) translate(4 370)">
<title>models_diagram</title>
<polygon fill="transparent" stroke="transparent" points="-4,4 -4,-370 463.3431,-370 463.3431,4 -4,4"/>
<!-- _diagram_info -->
<g id="node1" class="node">
<title>_diagram_info</title>
<text text-anchor="start" x="8" y="-351.6" font-family="Times,serif" font-size="13.00" fill="#000000">Models diagram</text>
<text text-anchor="start" x="8" y="-337.6" font-family="Times,serif" font-size="13.00" fill="#000000">Date: Nov 26 2018 &#45; 22:43</text>
<text text-anchor="start" x="8" y="-323.6" font-family="Times,serif" font-size="13.00" fill="#000000">Migration version: 20181120020512</text>
<text text-anchor="start" x="8" y="-309.6" font-family="Times,serif" font-size="13.00" fill="#000000">Generated by RailRoady 1.5.3</text>
<text text-anchor="start" x="8" y="-295.6" font-family="Times,serif" font-size="13.00" fill="#000000">http://railroady.prestonlee.com</text>
</g>
<!-- MonitoringLog -->
<g id="node2" class="node">
<title>MonitoringLog</title>
<ellipse fill="none" stroke="#000000" cx="203" cy="-90" rx="65.7887" ry="18"/>
<text text-anchor="middle" x="203" y="-86.3" font-family="Times,serif" font-size="14.00" fill="#000000">MonitoringLog</text>
</g>
<!-- Locale -->
<g id="node3" class="node">
<title>Locale</title>
<ellipse fill="none" stroke="#000000" cx="259" cy="-234" rx="34.394" ry="18"/>
<text text-anchor="middle" x="259" y="-230.3" font-family="Times,serif" font-size="14.00" fill="#000000">Locale</text>
</g>
<!-- MonitoringPoint -->
<g id="node6" class="node">
<title>MonitoringPoint</title>
<ellipse fill="none" stroke="#000000" cx="259" cy="-162" rx="69.5877" ry="18"/>
<text text-anchor="middle" x="259" y="-158.3" font-family="Times,serif" font-size="14.00" fill="#000000">MonitoringPoint</text>
</g>
<!-- Locale&#45;&gt;MonitoringPoint -->
<g id="edge1" class="edge">
<title>Locale&#45;&gt;MonitoringPoint</title>
<path fill="none" stroke="#701fb6" d="M259,-207.8144C259,-202.2775 259,-196.4053 259,-190.7785"/>
<ellipse fill="none" stroke="#701fb6" cx="259" cy="-211.8314" rx="4" ry="4"/>
<polygon fill="#701fb6" stroke="#701fb6" points="259.0001,-190.4133 263.5,-180.4132 259,-185.4133 259,-180.4133 259,-180.4133 259,-180.4133 259,-185.4133 254.5,-180.4133 259.0001,-190.4133 259.0001,-190.4133"/>
</g>
<!-- AlertMessage -->
<g id="node4" class="node">
<title>AlertMessage</title>
<ellipse fill="none" stroke="#000000" cx="315" cy="-18" rx="59.5901" ry="18"/>
<text text-anchor="middle" x="315" y="-14.3" font-family="Times,serif" font-size="14.00" fill="#000000">AlertMessage</text>
</g>
<!-- ApplicationRecord -->
<g id="node5" class="node">
<title>ApplicationRecord</title>
<ellipse fill="none" stroke="#000000" cx="382" cy="-327" rx="77.1866" ry="18"/>
<text text-anchor="middle" x="382" y="-323.3" font-family="Times,serif" font-size="14.00" fill="#000000">ApplicationRecord</text>
</g>
<!-- MonitoringPoint&#45;&gt;MonitoringLog -->
<g id="edge2" class="edge">
<title>MonitoringPoint&#45;&gt;MonitoringLog</title>
<path fill="none" stroke="#5dfc3b" d="M240.0871,-137.6834C234.6238,-130.6592 228.6429,-122.9695 223.1096,-115.8553"/>
<ellipse fill="none" stroke="#5dfc3b" cx="242.7015" cy="-141.0448" rx="4" ry="4"/>
<polygon fill="#5dfc3b" stroke="#5dfc3b" points="223.017,-115.7361 220.4296,-105.0798 219.9473,-111.7893 216.8775,-107.8425 216.8775,-107.8425 216.8775,-107.8425 219.9473,-111.7893 213.3254,-110.6053 223.017,-115.7361 223.017,-115.7361"/>
</g>
<!-- Alert -->
<g id="node8" class="node">
<title>Alert</title>
<ellipse fill="none" stroke="#000000" cx="315" cy="-90" rx="28.6953" ry="18"/>
<text text-anchor="middle" x="315" y="-86.3" font-family="Times,serif" font-size="14.00" fill="#000000">Alert</text>
</g>
<!-- MonitoringPoint&#45;&gt;Alert -->
<g id="edge3" class="edge">
<title>MonitoringPoint&#45;&gt;Alert</title>
<path fill="none" stroke="#4faa2e" d="M277.8832,-137.7215C283.6044,-130.3658 289.8956,-122.2771 295.6471,-114.8823"/>
<ellipse fill="none" stroke="#4faa2e" cx="275.2985" cy="-141.0448" rx="4" ry="4"/>
<polygon fill="#4faa2e" stroke="#4faa2e" points="295.9449,-114.4994 305.6364,-109.3686 299.0146,-110.5526 302.0844,-106.6058 302.0844,-106.6058 302.0844,-106.6058 299.0146,-110.5526 298.5323,-103.8431 295.9449,-114.4994 295.9449,-114.4994"/>
</g>
<!-- User -->
<g id="node7" class="node">
<title>User</title>
<ellipse fill="none" stroke="#000000" cx="259" cy="-327" rx="27.0966" ry="18"/>
<text text-anchor="middle" x="259" y="-323.3" font-family="Times,serif" font-size="14.00" fill="#000000">User</text>
</g>
<!-- User&#45;&gt;Locale -->
<g id="edge4" class="edge">
<title>User&#45;&gt;Locale</title>
<path fill="none" stroke="#35fcf0" d="M259,-300.4432C259,-288.4479 259,-274.268 259,-262.0949"/>
<ellipse fill="none" stroke="#35fcf0" cx="259" cy="-304.6262" rx="4" ry="4"/>
<polygon fill="#35fcf0" stroke="#35fcf0" points="259.0001,-262.0192 263.5,-252.0191 259,-257.0192 259,-252.0192 259,-252.0192 259,-252.0192 259,-257.0192 254.5,-252.0192 259.0001,-262.0192 259.0001,-262.0192"/>
</g>
<!-- Alert&#45;&gt;AlertMessage -->
<g id="edge5" class="edge">
<title>Alert&#45;&gt;AlertMessage</title>
<path fill="none" stroke="#b69037" d="M315,-63.8144C315,-58.2775 315,-52.4053 315,-46.7785"/>
<ellipse fill="none" stroke="#b69037" cx="315" cy="-67.8314" rx="4" ry="4"/>
<polygon fill="#b69037" stroke="#b69037" points="315.0001,-46.4133 319.5,-36.4132 315,-41.4133 315,-36.4133 315,-36.4133 315,-36.4133 315,-41.4133 310.5,-36.4133 315.0001,-46.4133 315.0001,-46.4133"/>
</g>
</g>
</svg>
