<?xml version="1.0" encoding="UTF-8" standalone="no"?>
<!DOCTYPE svg PUBLIC "-//W3C//DTD SVG 1.1//EN"
 "http://www.w3.org/Graphics/SVG/1.1/DTD/svg11.dtd">
<!-- Generated by graphviz version 2.40.1 (20161225.0304)
 -->
<!-- Title: models_diagram Pages: 1 -->
<svg width="726pt" height="852pt"
 viewBox="0.00 0.00 726.34 852.00" xmlns="http://www.w3.org/2000/svg" xmlns:xlink="http://www.w3.org/1999/xlink">
<g id="graph0" class="graph" transform="scale(1 1) rotate(0) translate(4 848)">
<title>models_diagram</title>
<polygon fill="transparent" stroke="transparent" points="-4,4 -4,-848 722.3431,-848 722.3431,4 -4,4"/>
<!-- _diagram_info -->
<g id="node1" class="node">
<title>_diagram_info</title>
<text text-anchor="start" x="8" y="-777.6" font-family="Times,serif" font-size="13.00" fill="#000000">Models diagram</text>
<text text-anchor="start" x="8" y="-763.6" font-family="Times,serif" font-size="13.00" fill="#000000">Date: Nov 26 2018 &#45; 22:43</text>
<text text-anchor="start" x="8" y="-749.6" font-family="Times,serif" font-size="13.00" fill="#000000">Migration version: 20181120020512</text>
<text text-anchor="start" x="8" y="-735.6" font-family="Times,serif" font-size="13.00" fill="#000000">Generated by RailRoady 1.5.3</text>
<text text-anchor="start" x="8" y="-721.6" font-family="Times,serif" font-size="13.00" fill="#000000">http://railroady.prestonlee.com</text>
</g>
<!-- MonitoringLog -->
<g id="node2" class="node">
<title>MonitoringLog</title>
<path fill="none" stroke="#000000" d="M148,-143.5C148,-143.5 368,-143.5 368,-143.5 374,-143.5 380,-149.5 380,-155.5 380,-155.5 380,-252.5 380,-252.5 380,-258.5 374,-264.5 368,-264.5 368,-264.5 148,-264.5 148,-264.5 142,-264.5 136,-258.5 136,-252.5 136,-252.5 136,-155.5 136,-155.5 136,-149.5 142,-143.5 148,-143.5"/>
<text text-anchor="middle" x="258" y="-249.3" font-family="Times,serif" font-size="14.00" fill="#000000">MonitoringLog</text>
<polyline fill="none" stroke="#000000" points="136,-241.5 380,-241.5 "/>
<text text-anchor="start" x="144" y="-226.3" font-family="Times,serif" font-size="14.00" fill="#000000">id :bigint</text>
<text text-anchor="start" x="144" y="-211.3" font-family="Times,serif" font-size="14.00" fill="#000000">monitoring_point_id :integer</text>
<text text-anchor="start" x="144" y="-196.3" font-family="Times,serif" font-size="14.00" fill="#000000">point_value :double precision</text>
<text text-anchor="start" x="144" y="-181.3" font-family="Times,serif" font-size="14.00" fill="#000000">created_at :timestamp without time zone</text>
<text text-anchor="start" x="144" y="-166.3" font-family="Times,serif" font-size="14.00" fill="#000000">updated_at :timestamp without time zone</text>
<text text-anchor="start" x="144" y="-151.3" font-family="Times,serif" font-size="14.00" fill="#000000">current_value :double precision</text>
</g>
<!-- Locale -->
<g id="node3" class="node">
<title>Locale</title>
<path fill="none" stroke="#000000" d="M279,-474.5C279,-474.5 499,-474.5 499,-474.5 505,-474.5 511,-480.5 511,-486.5 511,-486.5 511,-613.5 511,-613.5 511,-619.5 505,-625.5 499,-625.5 499,-625.5 279,-625.5 279,-625.5 273,-625.5 267,-619.5 267,-613.5 267,-613.5 267,-486.5 267,-486.5 267,-480.5 273,-474.5 279,-474.5"/>
<text text-anchor="middle" x="389" y="-610.3" font-family="Times,serif" font-size="14.00" fill="#000000">Locale</text>
<polyline fill="none" stroke="#000000" points="267,-602.5 511,-602.5 "/>
<text text-anchor="start" x="275" y="-587.3" font-family="Times,serif" font-size="14.00" fill="#000000">id :bigint</text>
<text text-anchor="start" x="275" y="-572.3" font-family="Times,serif" font-size="14.00" fill="#000000">title :character varying</text>
<text text-anchor="start" x="275" y="-557.3" font-family="Times,serif" font-size="14.00" fill="#000000">address :text</text>
<text text-anchor="start" x="275" y="-542.3" font-family="Times,serif" font-size="14.00" fill="#000000">type :character varying</text>
<text text-anchor="start" x="275" y="-527.3" font-family="Times,serif" font-size="14.00" fill="#000000">description :text</text>
<text text-anchor="start" x="275" y="-512.3" font-family="Times,serif" font-size="14.00" fill="#000000">created_at :timestamp without time zone</text>
<text text-anchor="start" x="275" y="-497.3" font-family="Times,serif" font-size="14.00" fill="#000000">updated_at :timestamp without time zone</text>
<text text-anchor="start" x="275" y="-482.3" font-family="Times,serif" font-size="14.00" fill="#000000">user_id :integer</text>
</g>
<!-- MonitoringPoint -->
<g id="node6" class="node">
<title>MonitoringPoint</title>
<path fill="none" stroke="#000000" d="M279,-316.5C279,-316.5 499,-316.5 499,-316.5 505,-316.5 511,-322.5 511,-328.5 511,-328.5 511,-425.5 511,-425.5 511,-431.5 505,-437.5 499,-437.5 499,-437.5 279,-437.5 279,-437.5 273,-437.5 267,-431.5 267,-425.5 267,-425.5 267,-328.5 267,-328.5 267,-322.5 273,-316.5 279,-316.5"/>
<text text-anchor="middle" x="389" y="-422.3" font-family="Times,serif" font-size="14.00" fill="#000000">MonitoringPoint</text>
<polyline fill="none" stroke="#000000" points="267,-414.5 511,-414.5 "/>
<text text-anchor="start" x="275" y="-399.3" font-family="Times,serif" font-size="14.00" fill="#000000">id :bigint</text>
<text text-anchor="start" x="275" y="-384.3" font-family="Times,serif" font-size="14.00" fill="#000000">title :character varying</text>
<text text-anchor="start" x="275" y="-369.3" font-family="Times,serif" font-size="14.00" fill="#000000">description :text</text>
<text text-anchor="start" x="275" y="-354.3" font-family="Times,serif" font-size="14.00" fill="#000000">locale_id :integer</text>
<text text-anchor="start" x="275" y="-339.3" font-family="Times,serif" font-size="14.00" fill="#000000">created_at :timestamp without time zone</text>
<text text-anchor="start" x="275" y="-324.3" font-family="Times,serif" font-size="14.00" fill="#000000">updated_at :timestamp without time zone</text>
</g>
<!-- Locale&#45;&gt;MonitoringPoint -->
<g id="edge1" class="edge">
<title>Locale&#45;&gt;MonitoringPoint</title>
<path fill="none" stroke="#29270f" d="M389,-466.2843C389,-460.1003 389,-453.8974 389,-447.802"/>
<ellipse fill="none" stroke="#29270f" cx="389" cy="-470.3714" rx="4" ry="4"/>
<polygon fill="#29270f" stroke="#29270f" points="389.0001,-447.6679 393.5,-437.6679 389,-442.6679 389,-437.6679 389,-437.6679 389,-437.6679 389,-442.6679 384.5,-437.668 389.0001,-447.6679 389.0001,-447.6679"/>
</g>
<!-- AlertMessage -->
<g id="node4" class="node">
<title>AlertMessage</title>
<path fill="none" stroke="#000000" d="M410,-.5C410,-.5 630,-.5 630,-.5 636,-.5 642,-6.5 642,-12.5 642,-12.5 642,-79.5 642,-79.5 642,-85.5 636,-91.5 630,-91.5 630,-91.5 410,-91.5 410,-91.5 404,-91.5 398,-85.5 398,-79.5 398,-79.5 398,-12.5 398,-12.5 398,-6.5 404,-.5 410,-.5"/>
<text text-anchor="middle" x="520" y="-76.3" font-family="Times,serif" font-size="14.00" fill="#000000">AlertMessage</text>
<polyline fill="none" stroke="#000000" points="398,-68.5 642,-68.5 "/>
<text text-anchor="start" x="406" y="-53.3" font-family="Times,serif" font-size="14.00" fill="#000000">id :bigint</text>
<text text-anchor="start" x="406" y="-38.3" font-family="Times,serif" font-size="14.00" fill="#000000">alert_id :integer</text>
<text text-anchor="start" x="406" y="-23.3" font-family="Times,serif" font-size="14.00" fill="#000000">created_at :timestamp without time zone</text>
<text text-anchor="start" x="406" y="-8.3" font-family="Times,serif" font-size="14.00" fill="#000000">updated_at :timestamp without time zone</text>
</g>
<!-- ApplicationRecord -->
<g id="node5" class="node">
<title>ApplicationRecord</title>
<ellipse fill="none" stroke="#000000" cx="641" cy="-753" rx="77.1866" ry="18"/>
<text text-anchor="middle" x="641" y="-749.3" font-family="Times,serif" font-size="14.00" fill="#000000">ApplicationRecord</text>
</g>
<!-- MonitoringPoint&#45;&gt;MonitoringLog -->
<g id="edge2" class="edge">
<title>MonitoringPoint&#45;&gt;MonitoringLog</title>
<path fill="none" stroke="#d95779" d="M338.0737,-309.7462C328.9555,-297.7047 319.4405,-285.1389 310.2848,-273.0479"/>
<ellipse fill="none" stroke="#d95779" cx="340.7678" cy="-313.3041" rx="4" ry="4"/>
<polygon fill="#d95779" stroke="#d95779" points="310.0498,-272.7376 307.6005,-262.0487 307.0314,-268.7514 304.013,-264.7653 304.013,-264.7653 304.013,-264.7653 307.0314,-268.7514 300.4255,-267.4818 310.0498,-272.7376 310.0498,-272.7376"/>
</g>
<!-- Alert -->
<g id="node8" class="node">
<title>Alert</title>
<path fill="none" stroke="#000000" d="M410,-128.5C410,-128.5 630,-128.5 630,-128.5 636,-128.5 642,-134.5 642,-140.5 642,-140.5 642,-267.5 642,-267.5 642,-273.5 636,-279.5 630,-279.5 630,-279.5 410,-279.5 410,-279.5 404,-279.5 398,-273.5 398,-267.5 398,-267.5 398,-140.5 398,-140.5 398,-134.5 404,-128.5 410,-128.5"/>
<text text-anchor="middle" x="520" y="-264.3" font-family="Times,serif" font-size="14.00" fill="#000000">Alert</text>
<polyline fill="none" stroke="#000000" points="398,-256.5 642,-256.5 "/>
<text text-anchor="start" x="406" y="-241.3" font-family="Times,serif" font-size="14.00" fill="#000000">id :bigint</text>
<text text-anchor="start" x="406" y="-226.3" font-family="Times,serif" font-size="14.00" fill="#000000">type :character varying</text>
<text text-anchor="start" x="406" y="-211.3" font-family="Times,serif" font-size="14.00" fill="#000000">title :character varying</text>
<text text-anchor="start" x="406" y="-196.3" font-family="Times,serif" font-size="14.00" fill="#000000">monitoring_point_id :integer</text>
<text text-anchor="start" x="406" y="-181.3" font-family="Times,serif" font-size="14.00" fill="#000000">max_value :double precision</text>
<text text-anchor="start" x="406" y="-166.3" font-family="Times,serif" font-size="14.00" fill="#000000">created_at :timestamp without time zone</text>
<text text-anchor="start" x="406" y="-151.3" font-family="Times,serif" font-size="14.00" fill="#000000">updated_at :timestamp without time zone</text>
<text text-anchor="start" x="406" y="-136.3" font-family="Times,serif" font-size="14.00" fill="#000000">alert_type :character varying</text>
</g>
<!-- MonitoringPoint&#45;&gt;Alert -->
<g id="edge3" class="edge">
<title>MonitoringPoint&#45;&gt;Alert</title>
<path fill="none" stroke="#fe764b" d="M439.7183,-310.0209C445.2443,-302.7232 450.9183,-295.23 456.5718,-287.7639"/>
<ellipse fill="none" stroke="#fe764b" cx="437.2322" cy="-313.3041" rx="4" ry="4"/>
<polygon fill="#fe764b" stroke="#fe764b" points="456.6535,-287.656 466.2779,-282.4003 459.672,-283.6698 462.6904,-279.6837 462.6904,-279.6837 462.6904,-279.6837 459.672,-283.6698 459.1029,-276.9671 456.6535,-287.656 456.6535,-287.656"/>
</g>
<!-- User -->
<g id="node7" class="node">
<title>User</title>
<path fill="none" stroke="#000000" d="M244.5,-662.5C244.5,-662.5 533.5,-662.5 533.5,-662.5 539.5,-662.5 545.5,-668.5 545.5,-674.5 545.5,-674.5 545.5,-831.5 545.5,-831.5 545.5,-837.5 539.5,-843.5 533.5,-843.5 533.5,-843.5 244.5,-843.5 244.5,-843.5 238.5,-843.5 232.5,-837.5 232.5,-831.5 232.5,-831.5 232.5,-674.5 232.5,-674.5 232.5,-668.5 238.5,-662.5 244.5,-662.5"/>
<text text-anchor="middle" x="389" y="-828.3" font-family="Times,serif" font-size="14.00" fill="#000000">User</text>
<polyline fill="none" stroke="#000000" points="232.5,-820.5 545.5,-820.5 "/>
<text text-anchor="start" x="240.5" y="-805.3" font-family="Times,serif" font-size="14.00" fill="#000000">id :bigint</text>
<text text-anchor="start" x="240.5" y="-790.3" font-family="Times,serif" font-size="14.00" fill="#000000">email :character varying</text>
<text text-anchor="start" x="240.5" y="-775.3" font-family="Times,serif" font-size="14.00" fill="#000000">encrypted_password :character varying</text>
<text text-anchor="start" x="240.5" y="-760.3" font-family="Times,serif" font-size="14.00" fill="#000000">reset_password_token :character varying</text>
<text text-anchor="start" x="240.5" y="-745.3" font-family="Times,serif" font-size="14.00" fill="#000000">reset_password_sent_at :timestamp without time zone</text>
<text text-anchor="start" x="240.5" y="-730.3" font-family="Times,serif" font-size="14.00" fill="#000000">remember_created_at :timestamp without time zone</text>
<text text-anchor="start" x="240.5" y="-715.3" font-family="Times,serif" font-size="14.00" fill="#000000">name :character varying</text>
<text text-anchor="start" x="240.5" y="-700.3" font-family="Times,serif" font-size="14.00" fill="#000000">created_at :timestamp without time zone</text>
<text text-anchor="start" x="240.5" y="-685.3" font-family="Times,serif" font-size="14.00" fill="#000000">updated_at :timestamp without time zone</text>
<text text-anchor="start" x="240.5" y="-670.3" font-family="Times,serif" font-size="14.00" fill="#000000">authentication_token :character varying(30)</text>
</g>
<!-- User&#45;&gt;Locale -->
<g id="edge4" class="edge">
<title>User&#45;&gt;Locale</title>
<path fill="none" stroke="#a80914" d="M389,-654.4112C389,-648.243 389,-642.0604 389,-635.9547"/>
<ellipse fill="none" stroke="#a80914" cx="389" cy="-658.4833" rx="4" ry="4"/>
<polygon fill="#a80914" stroke="#a80914" points="389.0001,-635.7679 393.5,-625.7678 389,-630.7679 389,-625.7679 389,-625.7679 389,-625.7679 389,-630.7679 384.5,-625.7679 389.0001,-635.7679 389.0001,-635.7679"/>
</g>
<!-- Alert&#45;&gt;AlertMessage -->
<g id="edge5" class="edge">
<title>Alert&#45;&gt;AlertMessage</title>
<path fill="none" stroke="#258940" d="M520,-120.0251C520,-113.9213 520,-107.8572 520,-101.9794"/>
<ellipse fill="none" stroke="#258940" cx="520" cy="-124.2394" rx="4" ry="4"/>
<polygon fill="#258940" stroke="#258940" points="520.0001,-101.6322 524.5,-91.6322 520,-96.6322 520,-91.6322 520,-91.6322 520,-91.6322 520,-96.6322 515.5,-91.6323 520.0001,-101.6322 520.0001,-101.6322"/>
</g>
</g>
</svg>
