<?xml version="1.0" encoding="UTF-8" standalone="no"?>
<!DOCTYPE svg PUBLIC "-//W3C//DTD SVG 1.1//EN"
 "http://www.w3.org/Graphics/SVG/1.1/DTD/svg11.dtd">
<!-- Generated by graphviz version 2.40.1 (20161225.0304)
 -->
<!-- Title: models_diagram Pages: 1 -->
<svg width="767pt" height="230pt"
 viewBox="0.00 0.00 766.60 230.00" xmlns="http://www.w3.org/2000/svg" xmlns:xlink="http://www.w3.org/1999/xlink">
<g id="graph0" class="graph" transform="scale(1 1) rotate(0) translate(4 226)">
<title>models_diagram</title>
<polygon fill="transparent" stroke="transparent" points="-4,4 -4,-226 762.5975,-226 762.5975,4 -4,4"/>
<!-- _diagram_info -->
<g id="node1" class="node">
<title>_diagram_info</title>
<text text-anchor="start" x="8" y="-207.6" font-family="Times,serif" font-size="13.00" fill="#000000">Models diagram</text>
<text text-anchor="start" x="8" y="-193.6" font-family="Times,serif" font-size="13.00" fill="#000000">Date: Nov 20 2018 &#45; 00:05</text>
<text text-anchor="start" x="8" y="-179.6" font-family="Times,serif" font-size="13.00" fill="#000000">Migration version: 20181120020512</text>
<text text-anchor="start" x="8" y="-165.6" font-family="Times,serif" font-size="13.00" fill="#000000">Generated by RailRoady 1.5.3</text>
<text text-anchor="start" x="8" y="-151.6" font-family="Times,serif" font-size="13.00" fill="#000000">http://railroady.prestonlee.com</text>
</g>
<!-- MonitoringLog -->
<g id="node2" class="node">
<title>MonitoringLog</title>
<ellipse fill="none" stroke="#000000" cx="266" cy="-18" rx="65.7887" ry="18"/>
<text text-anchor="middle" x="266" y="-14.3" font-family="Times,serif" font-size="14.00" fill="#000000">MonitoringLog</text>
</g>
<!-- Locale -->
<g id="node3" class="node">
<title>Locale</title>
<ellipse fill="none" stroke="#000000" cx="266" cy="-183" rx="34.394" ry="18"/>
<text text-anchor="middle" x="266" y="-179.3" font-family="Times,serif" font-size="14.00" fill="#000000">Locale</text>
</g>
<!-- MonitoringPoint -->
<g id="node6" class="node">
<title>MonitoringPoint</title>
<ellipse fill="none" stroke="#000000" cx="266" cy="-90" rx="69.5877" ry="18"/>
<text text-anchor="middle" x="266" y="-86.3" font-family="Times,serif" font-size="14.00" fill="#000000">MonitoringPoint</text>
</g>
<!-- Locale&#45;&gt;MonitoringPoint -->
<g id="edge1" class="edge">
<title>Locale&#45;&gt;MonitoringPoint</title>
<path fill="none" stroke="#b2c9e6" d="M266,-156.4432C266,-144.4479 266,-130.268 266,-118.0949"/>
<ellipse fill="none" stroke="#b2c9e6" cx="266" cy="-160.6262" rx="4" ry="4"/>
<polygon fill="#b2c9e6" stroke="#b2c9e6" points="266.0001,-118.0192 270.5,-108.0191 266,-113.0192 266,-108.0192 266,-108.0192 266,-108.0192 266,-113.0192 261.5,-108.0192 266.0001,-118.0192 266.0001,-118.0192"/>
</g>
<!-- AlertMessage -->
<g id="node4" class="node">
<title>AlertMessage</title>
<ellipse fill="none" stroke="#000000" cx="378" cy="-183" rx="59.5901" ry="18"/>
<text text-anchor="middle" x="378" y="-179.3" font-family="Times,serif" font-size="14.00" fill="#000000">AlertMessage</text>
</g>
<!-- ApplicationRecord -->
<g id="node5" class="node">
<title>ApplicationRecord</title>
<ellipse fill="none" stroke="#000000" cx="533" cy="-183" rx="77.1866" ry="18"/>
<text text-anchor="middle" x="533" y="-179.3" font-family="Times,serif" font-size="14.00" fill="#000000">ApplicationRecord</text>
</g>
<!-- MonitoringPoint&#45;&gt;MonitoringLog -->
<g id="edge2" class="edge">
<title>MonitoringPoint&#45;&gt;MonitoringLog</title>
<path fill="none" stroke="#896bd6" d="M266,-63.8144C266,-58.2775 266,-52.4053 266,-46.7785"/>
<ellipse fill="none" stroke="#896bd6" cx="266" cy="-67.8314" rx="4" ry="4"/>
<polygon fill="#896bd6" stroke="#896bd6" points="266.0001,-46.4133 270.5,-36.4132 266,-41.4133 266,-36.4133 266,-36.4133 266,-36.4133 266,-41.4133 261.5,-36.4133 266.0001,-46.4133 266.0001,-46.4133"/>
</g>
<!-- User -->
<g id="node7" class="node">
<title>User</title>
<ellipse fill="none" stroke="#000000" cx="656" cy="-183" rx="27.0966" ry="18"/>
<text text-anchor="middle" x="656" y="-179.3" font-family="Times,serif" font-size="14.00" fill="#000000">User</text>
</g>
<!-- Alert -->
<g id="node8" class="node">
<title>Alert</title>
<ellipse fill="none" stroke="#000000" cx="730" cy="-183" rx="28.6953" ry="18"/>
<text text-anchor="middle" x="730" y="-179.3" font-family="Times,serif" font-size="14.00" fill="#000000">Alert</text>
</g>
</g>
</svg>
